<svg width="67" height="57" viewBox="0 0 67 57" fill="none" xmlns="http://www.w3.org/2000/svg">
<rect x="0.5" y="-0.5" width="64.366" height="55.2452" rx="9.5" transform="matrix(1 0 0 -1 0.759766 55.4922)" fill="#274690" stroke="#DADADA"/>
<path fill-rule="evenodd" clip-rule="evenodd" d="M32.5 10C22.2827 10 14 18.0589 14 28C14 37.9411 22.2827 46 32.5 46C42.7173 46 51 37.9411 51 28C51 18.0589 42.7173 10 32.5 10ZM22.8812 24.9084H27.0738V37.1647H22.8812V24.9084ZM27.3499 21.117C27.3227 19.9153 26.4394 19 25.0052 19C23.571 19 22.6333 19.9153 22.6333 21.117C22.6333 22.2939 23.5433 23.2355 24.9508 23.2355H24.9776C26.4394 23.2355 27.3499 22.2939 27.3499 21.117ZM37.3664 24.6206C40.1252 24.6206 42.1935 26.3727 42.1935 30.1373L42.1934 37.1647H38.001V30.6076C38.001 28.9605 37.3943 27.8367 35.8766 27.8367C34.7184 27.8367 34.0285 28.5943 33.7255 29.3261C33.6146 29.5884 33.5874 29.9538 33.5874 30.3201V37.165H29.3944C29.3944 37.165 29.4496 26.0588 29.3944 24.9087H33.5874V26.6447C34.1438 25.8102 35.1404 24.6206 37.3664 24.6206Z" fill="white"/>
</svg>
