<svg width="67" height="57" viewBox="0 0 67 57" fill="none" xmlns="http://www.w3.org/2000/svg">
<rect x="-0.5" y="0.5" width="64.366" height="55.2452" rx="9.5" transform="matrix(-1 0 0 1 65.126 0.500732)" fill="#274690" stroke="#DADADA"/>
<path fill-rule="evenodd" clip-rule="evenodd" d="M33.4429 47.6252C43.5175 47.6252 51.6846 39.4581 51.6846 29.3835C51.6846 19.3089 43.5175 11.1418 33.4429 11.1418C23.3683 11.1418 15.2012 19.3089 15.2012 29.3835C15.2012 39.4581 23.3683 47.6252 33.4429 47.6252ZM33.4433 28.6235C34.9258 28.6235 42.5637 24.0832 42.5637 24.0832V23.3742C42.5637 22.4958 41.8836 21.7828 41.044 21.7828H25.8425C25.0022 21.7828 24.3221 22.4958 24.3221 23.3742L24.3342 24.17C24.3342 24.17 31.8894 28.6235 33.4433 28.6235ZM24.3342 26.3432C24.3342 26.3432 31.8181 30.4073 33.4433 30.4073C34.9258 30.4073 42.5523 26.3432 42.5516 26.3432L42.5637 35.4641C42.5637 36.3032 41.8828 36.9842 41.044 36.9842H25.8425C25.0022 36.9842 24.3221 36.3032 24.3221 35.4641L24.3342 26.3432Z" fill="white"/>
</svg>
