<svg width="69" height="63" viewBox="0 0 69 63" fill="none" xmlns="http://www.w3.org/2000/svg">
<path d="M67.2497 1.43909C66.9474 1.20201 66.5745 1.0522 66.1783 1.00875C65.7822 0.965294 65.3808 1.03016 65.0253 1.19509L2.52772 29.3283C2.07573 29.5242 1.69306 29.8315 1.42307 30.2153C1.15308 30.5992 1.00656 31.0441 1.00012 31.4999C0.946366 31.9724 1.03526 32.4494 1.25722 32.8794C1.47918 33.3093 1.8258 33.676 2.25972 33.9399L20.0013 42.9923C19.8423 43.1997 19.758 43.447 19.7601 43.6999V60.7799C19.7561 61.034 19.8394 61.283 19.9983 61.4919C20.1573 61.7009 20.3839 61.8594 20.6466 61.9454C20.9093 62.0314 21.195 62.0406 21.4636 61.9716C21.7323 61.9026 21.9707 61.759 22.1453 61.5607L33.1601 49.5559L46.5601 56.3391C46.9073 56.5498 47.3037 56.6838 47.7178 56.7304C48.1319 56.777 48.5522 56.7349 48.9453 56.6075C49.3579 56.4789 49.7298 56.2605 50.0287 55.9714C50.3276 55.6822 50.5445 55.331 50.6605 54.9483L68.0001 3.43989C68.1028 3.07609 68.0864 2.69292 67.9531 2.33747C67.8198 1.98201 67.5753 1.66976 67.2497 1.43909ZM2.98332 32.7199L3.68012 31.5243L61.6217 5.46509L22.0381 41.1379L3.68012 31.7439L2.98332 32.7199ZM22.4401 57.3883V44.1879L30.6409 48.3603L22.4401 57.3883ZM47.7393 54.2407L24.4769 42.4799L63.9801 6.75829L47.7393 54.2407Z" fill="#1D346C"/>
</svg>
