<svg width="67" height="57" viewBox="0 0 67 57" fill="none" xmlns="http://www.w3.org/2000/svg">
<rect x="-0.5" y="0.5" width="64.366" height="55.2452" rx="9.5" transform="matrix(-1 0 0 1 65.126 0.754883)" fill="#274690" stroke="#DADADA"/>
<path fill-rule="evenodd" clip-rule="evenodd" d="M15.2012 29.6372C15.2012 39.7118 23.3683 47.8789 33.4429 47.8789C43.5175 47.8789 51.6846 39.7118 51.6846 29.6372C51.6846 19.5626 43.5175 11.3955 33.4429 11.3955C23.3683 11.3955 15.2012 19.5626 15.2012 29.6372ZM32.8734 24.5679C34.6433 25.3196 38.1807 26.8753 43.4854 29.2351C44.3468 29.5848 44.7981 29.927 44.8392 30.2616C44.9086 30.827 44.2151 31.0496 43.2707 31.3528C43.1423 31.3941 43.0092 31.4368 42.8727 31.4821C41.9436 31.7904 40.6938 32.1512 40.0441 32.1655C39.4547 32.1785 38.7969 31.9304 38.0707 31.4213C33.1143 28.0052 30.5558 26.2786 30.3952 26.2414C30.2818 26.2151 30.1248 26.1821 30.0184 26.2787C29.912 26.3752 29.9225 26.5581 29.9337 26.6071C30.0024 26.9062 32.7246 29.4902 34.1334 30.8274C34.5726 31.2443 34.8841 31.54 34.9478 31.6075C35.0904 31.7588 35.2358 31.9019 35.3755 32.0394C36.2387 32.889 36.886 33.5261 35.3397 34.5665C34.5966 35.0665 34.002 35.4799 33.4088 35.8924C32.761 36.3428 32.1148 36.7921 31.2788 37.3517C31.0658 37.4943 30.8623 37.6423 30.6642 37.7865C29.9103 38.3353 29.2329 38.8284 28.3961 38.7497C27.9099 38.7041 27.4076 38.2372 27.1525 36.8449C26.5497 33.5545 25.3648 26.4251 25.0909 23.4873C25.0669 23.2299 25.0971 22.9005 25.1213 22.7559C25.1456 22.6113 25.1962 22.4053 25.3803 22.2527C25.5983 22.0721 25.9349 22.034 26.0854 22.0366C26.7699 22.049 27.8199 22.4218 32.8734 24.5679Z" fill="white"/>
</svg>
