<svg width="67" height="57" viewBox="0 0 67 57" fill="none" xmlns="http://www.w3.org/2000/svg">
<rect x="-0.5" y="0.5" width="64.366" height="55.2452" rx="9.5" transform="matrix(-1 0 0 1 65.126 0.493896)" fill="#274690" stroke="#DADADA"/>
<path fill-rule="evenodd" clip-rule="evenodd" d="M33.4429 10.3748C43.5175 10.3748 51.6846 18.5418 51.6846 28.6164C51.6846 38.691 43.5175 46.8581 33.4429 46.8581C23.3683 46.8581 15.2012 38.691 15.2012 28.6164C15.2012 18.5418 23.3683 10.3748 33.4429 10.3748ZM33.3521 25.6073L33.4032 24.7526C33.5564 22.5372 32.2114 20.5137 30.0833 19.7287C29.3001 19.4496 27.9722 19.4147 27.1039 19.6589C26.7634 19.7636 26.1165 20.1125 25.6568 20.4264L24.8226 21.0021L23.9032 20.7056C23.3925 20.5486 22.7115 20.2869 22.405 20.1125C22.1156 19.9555 21.8602 19.8682 21.8602 19.9206C21.8602 20.2171 22.4902 21.2289 23.0179 21.7871C23.733 22.5721 23.5287 22.6418 22.0816 22.1185C21.2133 21.822 21.1963 21.822 21.3665 22.1534C21.4687 22.3278 21.9964 22.9384 22.5583 23.4966C23.5117 24.456 23.5627 24.5607 23.5627 25.3631C23.5627 26.6016 24.1416 29.1833 24.7204 30.5963C25.793 33.2478 28.0914 35.9865 30.3897 37.3645C33.6245 39.3008 37.9318 39.7893 41.5581 38.6554C42.7669 38.2716 44.8439 37.2948 44.8439 37.1203C44.8439 37.068 44.214 36.9982 43.4479 36.9808C41.8475 36.9459 40.2472 36.4923 38.8852 35.6899L37.9659 35.1317L39.0214 34.7654C40.5196 34.2421 41.8646 33.0384 42.2051 31.9046C42.3072 31.5383 42.2732 31.5208 41.3198 31.5208L40.3323 31.5034L41.1665 31.1022C42.154 30.5963 43.0563 29.7415 43.499 28.8693C43.8224 28.2413 44.231 26.6539 44.1119 26.5318C44.0778 26.4795 43.7203 26.5842 43.3117 26.7237C42.137 27.1598 41.9837 27.0552 42.6647 26.3225C43.9416 24.9968 44.3332 23.0256 43.7203 21.1591L43.4309 20.3218L42.3072 21.4556C40.0088 23.7408 37.3019 25.1014 34.2033 25.5026L33.3521 25.6073Z" fill="#F9F9F9"/>
</svg>
