<svg width="67" height="57" viewBox="0 0 67 57" fill="none" xmlns="http://www.w3.org/2000/svg">
<rect x="-0.5" y="0.5" width="64.366" height="55.2452" rx="9.5" transform="matrix(-1 0 0 1 65.126 0)" fill="#274690" stroke="#DADADA"/>
<path d="M33.4103 10.0176C43.4649 10.0176 51.6182 18.3084 51.6182 28.5363C51.6182 36.7186 46.401 43.6603 39.1665 46.109C38.2565 46.2805 37.9224 45.7073 37.9224 45.2182C37.9224 44.7766 37.9393 43.3177 37.9472 41.7703C43.0126 42.8906 44.0815 39.5853 44.0815 39.5853C44.9097 37.4447 46.1031 36.8756 46.1031 36.8756C47.7551 35.7262 45.9786 35.7498 45.9786 35.7498C44.1502 35.8801 43.1875 37.6582 43.1875 37.6582C41.5635 40.4893 38.928 39.6709 37.889 39.1977C37.7255 38.001 37.2537 37.1835 36.733 36.7213C40.7772 36.253 45.0285 34.6651 45.0285 27.5691C45.0285 25.5473 44.3173 23.8952 43.1525 22.5983C43.3416 22.1316 43.9648 20.2483 42.9761 17.6975C42.9761 17.6975 41.4471 17.1997 37.9677 19.5957C36.5153 19.1854 34.9576 18.9796 33.4103 18.9726C31.8629 18.9796 30.304 19.1854 28.8489 19.5957C25.3737 17.1997 23.8468 17.6975 23.8468 17.6975C22.8557 20.2483 23.4792 22.1316 23.6683 22.5983C22.5008 23.8952 21.7944 25.5473 21.7944 27.5691C21.7944 34.682 26.0539 36.2481 30.1084 36.7066C29.4553 37.2813 28.8734 38.4083 28.8734 40.1361C28.8734 42.6136 28.8945 44.6079 28.8945 45.2182C28.8945 45.711 28.5667 46.2884 27.6438 46.1066C20.4131 43.6551 15.2026 36.7158 15.2026 28.5363C15.2026 18.3084 23.3547 10.0176 33.4103 10.0176" fill="#F5F3F5"/>
<path d="M44.7218 36.6067C44.7619 36.699 44.9043 36.7263 45.0339 36.6631C45.166 36.6027 45.2401 36.4773 45.1973 36.385C45.1581 36.2902 45.0155 36.2641 44.8838 36.327C44.7514 36.3877 44.676 36.5144 44.7218 36.6067" fill="#F5F3F5"/>
<path d="M43.9842 37.4432C44.071 37.5251 44.2408 37.487 44.3559 37.3576C44.475 37.2285 44.4974 37.0559 44.4093 36.9728C44.3198 36.8909 44.1551 36.9292 44.0357 37.0583C43.9166 37.189 43.8934 37.3604 43.9842 37.4432" fill="#F5F3F5"/>
<path d="M43.2667 38.5097C43.3783 38.5885 43.5607 38.5146 43.6735 38.3499C43.785 38.1852 43.785 37.9877 43.6711 37.9086C43.558 37.8295 43.3783 37.9006 43.264 38.0641C43.1527 38.2312 43.1527 38.429 43.2667 38.5097" fill="#F5F3F5"/>
<path d="M42.283 39.5402C42.3828 39.6521 42.5954 39.6221 42.751 39.4693C42.9102 39.32 42.9545 39.1081 42.8544 38.9961C42.7534 38.8839 42.5396 38.9155 42.3828 39.067C42.2248 39.216 42.1766 39.4295 42.283 39.5402" fill="#F5F3F5"/>
<path d="M40.9264 40.1386C40.9704 40.2837 41.1751 40.3496 41.3813 40.288C41.5873 40.2245 41.7221 40.0546 41.6804 39.908C41.6376 39.762 41.432 39.6933 41.2243 39.7593C41.0186 39.8224 40.8835 39.9911 40.9264 40.1386" fill="#F5F3F5"/>
<path d="M39.4358 40.2495C39.4307 40.4023 39.6056 40.5289 39.8221 40.5314C40.0398 40.5366 40.2158 40.413 40.2183 40.2627C40.2183 40.1085 40.0473 39.983 39.8296 39.9794C39.6131 39.9751 39.4358 40.0977 39.4358 40.2495" fill="#F5F3F5"/>
<path d="M38.0494 40.0094C38.0234 40.1584 38.1739 40.3114 38.3889 40.3519C38.6002 40.3915 38.7959 40.2995 38.8228 40.1516C38.849 39.9989 38.6958 39.8459 38.4848 39.8063C38.2695 39.7683 38.0768 39.8579 38.0494 40.0094" fill="#F5F3F5"/>
</svg>
