<svg width="66" height="57" viewBox="0 0 66 57" fill="none" xmlns="http://www.w3.org/2000/svg">
<rect x="-0.5" y="0.5" width="64.366" height="55.2452" rx="9.5" transform="matrix(-1 0 0 1 64.3657 0.748047)" fill="#274690" stroke="#DADADA"/>
<path fill-rule="evenodd" clip-rule="evenodd" d="M50.9243 28.8706C50.9243 38.9452 42.7572 47.1123 32.6826 47.1123C22.608 47.1123 14.441 38.9452 14.441 28.8706C14.441 18.796 22.608 10.6289 32.6826 10.6289C42.7572 10.6289 50.9243 18.796 50.9243 28.8706ZM21.2344 28.1725C21.2367 34.1518 26.1008 39.017 32.0814 39.0194H32.0858C33.9013 39.0188 35.6851 38.5633 37.2694 37.6991L43.0196 39.2075L41.4807 33.5867C42.43 31.9417 42.9295 30.0757 42.9286 28.1639C42.9263 22.1833 38.0603 17.3175 32.0815 17.3175C29.1797 17.3188 26.4563 18.4484 24.4084 20.4987C22.3604 22.5489 21.2332 25.2742 21.2344 28.1725Z" fill="white"/>
<path fill-rule="evenodd" clip-rule="evenodd" d="M40.4152 36.6303L37.0029 35.7352L36.6737 35.9306C35.2895 36.7521 33.7027 37.1867 32.0849 37.1873H32.0813C27.1121 37.1873 23.0677 33.1428 23.0658 28.1716C23.0648 25.7626 24.0017 23.4975 25.7039 21.7934C27.406 20.0892 29.6697 19.1502 32.0777 19.1494C37.0507 19.1494 41.0952 23.1935 41.0972 28.1643C41.0979 29.8679 40.6212 31.5269 39.7187 32.9623L39.5044 33.3034L40.4152 36.6303ZM26.9878 30.5076C26.7988 30.599 26.6711 30.6607 26.6166 30.7517C26.5489 30.8647 26.5489 31.4073 26.7746 32.0405C27.0006 32.6736 28.0833 33.2514 28.6041 33.3292C29.071 33.399 29.6619 33.4281 30.3112 33.2218C30.7048 33.0969 31.2097 32.9301 31.8563 32.6509C34.3972 31.5537 36.1143 29.0911 36.4388 28.6257C36.4615 28.5931 36.4774 28.5702 36.4863 28.5584L36.4885 28.5555C36.6319 28.3641 37.593 27.0818 37.593 25.7547C37.593 24.5062 36.9797 23.8519 36.6975 23.5507C36.6781 23.53 36.6603 23.511 36.6444 23.4936C36.396 23.2223 36.1023 23.1545 35.9217 23.1545C35.741 23.1545 35.5601 23.1561 35.4022 23.1641C35.3827 23.165 35.3624 23.1649 35.3415 23.1648C35.1835 23.1639 34.9866 23.1627 34.7924 23.6293C34.7177 23.8089 34.6083 24.0751 34.493 24.3559C34.2598 24.9237 34.0021 25.551 33.9567 25.6418C33.889 25.7774 33.8438 25.9356 33.9342 26.1166C33.9477 26.1437 33.9603 26.1694 33.9722 26.1938C34.0401 26.3323 34.09 26.4342 34.2052 26.5687C34.2505 26.6216 34.2973 26.6786 34.3441 26.7356C34.4373 26.8491 34.5305 26.9627 34.6117 27.0436C34.7474 27.1787 34.8887 27.3253 34.7306 27.5967C34.5725 27.868 34.0285 28.7555 33.2228 29.4742C32.3567 30.2468 31.6039 30.5733 31.2223 30.7388C31.1478 30.7711 31.0875 30.7973 31.0432 30.8195C30.7723 30.9552 30.6142 30.9325 30.456 30.7517C30.2979 30.5708 29.7785 29.9602 29.5979 29.6889C29.4172 29.4177 29.2365 29.4629 28.9881 29.5533C28.7396 29.6438 27.4071 30.2994 27.136 30.4351C27.0831 30.4615 27.0337 30.4855 26.9878 30.5076Z" fill="white"/>
</svg>
